<svg version="1.1" id="_x32_" xmlns="http://www.w3.org/2000/svg" x="0" y="0" viewBox="0 0 512 512" style="width:256px;height:256px;opacity:1" xml:space="preserve"><style>.st0{fill:#4b4b4b}</style><path class="st0" d="M385.551 96.808c-3.711 0-6.743 3.023-6.743 6.743a6.75 6.75 0 0 0 6.743 6.744 6.739 6.739 0 0 0 6.744-6.744 6.743 6.743 0 0 0-6.744-6.743z" style="fill:#d30000"/><path class="st0" d="M510.004 73.946c-1.333-2.726-3.397-5.172-6.183-6.837-3.363-2.03-7.091-2.794-10.641-2.785-4.17.017-8.203.994-11.898 2.259-3.703 1.29-7.101 2.921-9.945 4.374-3.712 1.928-9.665 3.958-16.213 5.41-6.564 1.486-13.792 2.429-20.28 2.42-3.329.008-6.471-.246-9.172-.781-4.17-.79-7.482-1.869-10.548-3.092-4.594-1.818-8.679-4.06-13.877-6.013-5.18-1.937-11.372-3.448-19.694-3.712h.034c-.535-.016-1.028-.034-1.52-.034-12.875 0-24.485 5.521-32.79 14.192a48.22 48.22 0 0 0-13.444 33.393c.008 1.317-.221 4.128-.782 7.796-1.962 12.883-7.941 36.791-20.578 57.886-6.335 10.574-14.292 20.417-24.136 27.992-9.876 7.567-21.597 12.917-35.822 14.582h.016a30.717 30.717 0 0 1-3.668.221c-3.653 0-6.922-.645-10.124-1.672-4.815-1.538-9.41-3.975-14.48-6.217-5.028-2.225-10.616-4.229-17.164-4.229-5.291.05-10.404 2.03-15.516 4.653-7.627 3.967-15.295 9.648-21.886 14.242-3.269 2.302-6.284 4.332-8.713 5.682-1.197.679-2.267 1.197-3.065 1.494-.807.306-1.334.374-1.368.365-1.104.009-3.074-.433-5.495-1.282-3.644-1.274-8.263-3.346-13.469-5.173-5.206-1.8-11.075-3.346-17.41-3.346-2.293 0-4.654.212-7.041.688-2.691.544-5.138 1.622-7.362 2.989-3.898 2.429-7.16 5.708-10.31 9.156-4.696 5.188-9.138 10.836-13.936 14.981-2.387 2.072-4.833 3.771-7.389 4.926-2.566 1.146-5.207 1.8-8.238 1.809-.943 0-1.919-.077-2.947-.212h.009c-1.724-.23-3.04-.636-4.026-1.155-1.469-.764-2.31-1.631-3.015-3.015-.688-1.384-1.138-3.372-1.138-6.055 0-2.879.526-6.489 1.563-10.641 3.134-12.526 10.998-30.022 21.571-50.608 5.122-8.892 7.304-17.512 7.296-25.444 0-6.522-1.452-12.51-3.737-17.818-3.422-7.949-8.671-14.344-13.886-19.024-2.608-2.319-5.231-4.212-7.686-5.664-2.454-1.444-4.688-2.463-6.913-2.973l.009.009c-2.208-.493-4.179-.73-5.945-.73-1.936.016-3.66.237-5.402 1.087-.858.433-1.758 1.053-2.488 2.039-.739.959-1.206 2.318-1.198 3.592 0 1.283.399 2.395.892 3.27.773 1.325 1.75 2.233 2.854 3.049.9.654 1.945 1.232 3.066 1.75 2.038 1.809 3.422 3.745 4.323 5.877.976 2.242 1.435 4.755 1.435 7.584.017 4.17-1.036 8.994-2.896 14.081-2.76 7.626-7.278 15.796-12.093 23.474-4.799 7.694-9.886 14.862-13.809 20.731-4.459 6.717-9.852 16.534-14.183 28.357C3.244 243.647 0 257.422 0 271.937c0 9.554 1.418 19.439 4.883 29.223 5.223 14.684 15.108 29.037 31.338 41.504 15.431 11.881 36.527 22.106 64.892 29.784-1.563 3.635-4.034 7.626-7.048 11.66-5.147 6.922-11.635 13.911-16.96 20.034-2.658 3.074-5.028 5.911-6.871 8.586-.9 1.351-1.69 2.641-2.301 4-.603 1.367-1.078 2.794-1.096 4.552 0 .586.068 1.222.23 1.86.348 1.503 1.274 2.828 2.31 3.677 1.563 1.292 3.202 1.801 4.849 2.174 1.673.331 3.448.45 5.385.45 4.653 0 10.352-.73 16.67-1.911 9.487-1.758 20.324-4.535 30.43-7.559 10.106-3.015 19.423-6.268 25.902-9.036 11.024-4.706 18.591-11.788 23.278-19.601 13.75 1.868 28.978 2.972 44.163 2.972 6.378 0 12.748-.213 18.998-.62a94.502 94.502 0 0 1-1.044 5.894c-1.529 7.219-3.864 14.752-5.877 21.495-1.002 3.38-1.91 6.565-2.598 9.469-.67 2.922-1.155 5.52-1.155 8.035.009 1.647.17 3.329 1.044 5.079.748 1.494 2.124 2.692 3.491 3.252 1.367.611 2.684.764 3.949.764 2.217-.017 4.382-.51 6.777-1.24 4.161-1.308 8.951-3.482 14.157-6.182 15.593-8.111 34.786-20.96 45.632-28.91 7.524-5.537 12.705-11.974 15.95-18.65 3.227-6.692 4.518-13.571 4.518-20.009 0-5.401-.926-10.454-2.327-14.973 12.731-12.798 20.171-24.136 24.51-35.439 3.372-8.748 4.883-17.351 5.835-26.353 1.41-13.512 1.63-27.966 4.73-46.277 3.092-18.285 9.045-40.494 21.996-69.301 4.612-10.258 8.272-16.509 12.059-20.696a29.978 29.978 0 0 1 6.073-5.223c2.251-1.495 4.832-2.82 7.949-4.188h.009c2.819-1.24 6.658-1.996 11.109-1.996 8.136 0 18.208 2.523 27.694 8.077 8.076 4.706 15.372 6.675 21.691 6.675 6.735.018 12.263-2.276 16.076-5.528 1.911-1.596 3.414-3.448 4.459-5.392 1.062-1.962 1.707-4.034 1.707-6.242.009-1.809-.484-3.805-1.8-5.487-1.291-1.656-3.321-2.752-5.36-3.057-.908-.136-2.649-.57-4.772-1.198-.102-.026-.212-.068-.314-.094-.289-3.04-.79-6.403-1.63-6.658-.841-.264-3.372 2.123-5.53 4.382a627.644 627.644 0 0 1-12.509-4.331c-.255-3.253-.764-7.542-1.716-7.848-.925-.264-3.864 2.607-6.141 5.028-1.299-.484-2.581-.943-3.872-1.41-5.716-2.089-11.126-4.084-15.431-5.656-2.149-.798-4.034-1.452-5.562-2.004a67.605 67.605 0 0 1-1.044-.365c.373-.052.738-.111 1.138-.178 3.856-.612 9.376-1.529 15.72-2.633 1.987 2.276 4.289 4.688 5.13 4.417.722-.264 1.342-2.905 1.784-5.64 4.602-.807 9.46-1.681 14.31-2.599 1.706 2.497 3.762 5.163 4.637 4.968.84-.178 1.852-3.372 2.632-6.353a819.3 819.3 0 0 0 9.495-1.894c1.818 2.744 4.441 6.37 5.435 6.149 1.002-.212 2.242-4.663 3.032-7.941.255-.068.544-.119.807-.178 3.134-.714 5.936-1.384 8.28-2.021 2.361-.646 4.212-1.206 5.716-1.844h.008c4.076-1.741 7.193-4.628 9.18-7.94 1.987-3.321 2.913-7.041 2.913-10.667-.002-3.071-.656-6.095-1.998-8.829zm-8.798 14.743c-1.079 1.775-2.607 3.244-4.926 4.254-.391.153-1.121.433-2.047.706-3.533 1.104-9.92 2.598-17.436 4.161-11.27 2.352-25.197 4.909-36.858 6.947a1310.632 1310.632 0 0 1-15.219 2.599c-4.076.671-7.066 1.121-8.084 1.257-2.039.271-3.856.798-5.496 1.996-.815.611-1.563 1.401-2.08 2.386a6.662 6.662 0 0 0-.816 3.194c0 1.308.391 2.497.909 3.482.807 1.469 1.928 2.565 3.21 3.465 1.292.875 2.769 1.563 4.417 2.038h.017c.484.136 1.851.603 3.635 1.223 6.318 2.25 18.539 6.828 30.267 11.024 5.87 2.089 11.619 4.102 16.502 5.699 2.446.79 4.671 1.478 6.608 2.03 1.707.483 3.126.84 4.416 1.07a5.077 5.077 0 0 1-.535 1.47c-.706 1.307-2.098 2.87-4.162 4.06-2.072 1.18-4.789 2.046-8.305 2.046-4.382 0-10.081-1.351-17.062-5.418-10.871-6.336-22.354-9.309-32.323-9.334-5.453.025-10.489.9-14.795 2.778-3.414 1.478-6.48 3.048-9.334 4.917-4.263 2.81-7.966 6.378-11.329 11.15-3.397 4.773-6.531 10.735-10.124 18.692-11.779 26.166-17.996 47.296-21.494 65.046-2.625 13.3-3.694 24.671-4.485 34.752-.585 7.558-.993 14.362-1.749 20.714-1.121 9.529-2.947 17.962-7.109 26.727-3.644 7.66-9.13 15.652-17.75 24.739-1.393-2.488-2.938-4.68-4.612-6.403l-6.599 6.403c1.766 1.792 3.94 5.198 5.537 9.436 1.614 4.254 2.701 9.342 2.692 14.692 0 5.232-1.019 10.684-3.592 16.001-2.59 5.299-6.692 10.497-13.121 15.236-7.966 5.877-20.968 14.693-33.266 21.946-6.149 3.626-12.136 6.879-17.164 9.171-2.506 1.138-4.772 2.03-6.65 2.616-1.376.45-2.538.697-3.329.782 0-.807.136-1.971.399-3.38.476-2.598 1.402-5.962 2.497-9.724 1.648-5.648 3.737-12.22 5.419-19.006 1.673-6.752 2.972-13.682 2.981-20.289-.009-5.232-.816-10.344-3.279-14.845l-8.051 4.416c1.24 2.242 1.912 5.248 2.072 8.781-6.403.442-12.951.714-19.55.714-13.707 0-27.534-.917-40.086-2.48a50.342 50.342 0 0 0 2.675-16.136c0-4.195-.51-8.136-1.367-11.626-.866-3.508-2.055-6.582-3.559-9.104l-7.898 4.731c.917 1.495 1.868 3.787 2.53 6.556.672 2.769 1.096 5.988 1.096 9.444 0 6.353-1.444 13.376-5.172 19.712-3.72 6.353-9.682 12.153-19.287 16.298-7.95 3.406-21.478 7.915-34.922 11.507-6.735 1.8-13.462 3.372-19.457 4.502-5.996 1.112-11.321 1.766-14.998 1.741a17.7 17.7 0 0 1-3.075-.196c.433-.841 1.155-1.978 2.115-3.286 2.072-2.837 5.206-6.403 8.688-10.327 5.223-5.92 11.278-12.671 16.145-19.678 2.429-3.516 4.569-7.1 6.157-10.752 1.57-3.66 2.598-7.431 2.607-11.296 0-1.741-.204-3.473-.688-5.18l-8.85 2.455c.119.467.212.942.264 1.435-36.807-10.047-60.061-24.315-74.108-39.942-7.33-8.17-12.221-16.714-15.313-25.393-3.091-8.679-4.365-17.495-4.365-26.149-.009-13.148 2.955-25.911 7.007-36.944 4.025-11.015 9.112-20.305 13.189-26.403 5.078-7.627 12.552-18.022 18.828-29.13 3.134-5.554 5.979-11.287 8.076-17.045 2.064-5.758 3.431-11.541 3.44-17.215 0-3.83-.646-7.635-2.166-11.21-.96-2.251-2.318-4.366-3.983-6.328 1.894.934 4.306 2.497 6.794 4.578 3.805 3.193 7.78 7.584 10.718 12.832 2.964 5.274 4.917 11.329 4.926 18.081-.008 6.31-1.698 13.3-6.174 21.045l-.059.102-.06.119c-7.116 13.877-13.087 26.421-17.316 37.351-2.123 5.469-3.814 10.53-4.976 15.202-1.164 4.671-1.835 8.934-1.844 12.874 0 2.446.264 4.773.875 6.948.909 3.278 2.718 6.293 5.41 8.442 2.675 2.182 6.055 3.431 9.826 3.94 1.426.204 2.837.289 4.195.289 6.726.016 12.535-2.327 17.359-5.64 7.228-4.96 12.646-11.94 17.741-17.664 2.54-2.871 4.968-5.418 7.313-7.287 2.352-1.877 4.518-3.015 6.615-3.431h.009c1.758-.357 3.49-.51 5.24-.51 6.412-.018 12.952 2.174 19.032 4.569 3.058 1.205 5.988 2.429 8.816 3.43 2.836.977 5.571 1.766 8.526 1.784 2.25-.018 4.102-.697 6.03-1.546 3.338-1.512 6.87-3.83 10.735-6.488 5.749-3.975 12.144-8.714 18.233-12.374 3.049-1.843 6.005-3.388 8.689-4.441 2.666-1.053 5.044-1.58 6.862-1.572 3.1 0 5.979.612 8.952 1.639 4.442 1.512 9.053 4.017 14.336 6.268 5.274 2.251 11.338 4.213 18.48 4.213a42.69 42.69 0 0 0 4.705-.281l-.9.102.909-.102c18.226-2.106 33.122-9.792 44.926-20.204 17.724-15.609 28.722-37.113 35.423-56.026a188.634 188.634 0 0 0 7.041-25.41 139.274 139.274 0 0 0 1.554-9.393c.34-2.641.51-4.73.51-6.361a39.082 39.082 0 0 1 10.879-27.041c6.735-7.006 15.932-11.346 26.158-11.346.408 0 .781 0 1.155.017h.034c9.894.357 15.338 2.395 21.139 4.96 2.887 1.274 5.851 2.726 9.324 4.119 3.466 1.384 7.422 2.676 12.23 3.592 3.431.663 7.108.934 10.896.934 7.355 0 15.151-1.036 22.294-2.632 7.15-1.622 13.597-3.753 18.412-6.216 2.624-1.351 5.664-2.786 8.747-3.848 3.092-1.087 6.2-1.775 8.883-1.775 2.302.016 4.229.476 5.902 1.478l.026.017c1.087.662 1.979 1.656 2.649 3.006.68 1.358 1.07 3.04 1.062 4.773.002 2.059-.541 4.157-1.611 5.906z" style="fill:#d30000"/></svg>