<svg version="1.1" id="_x32_" xmlns="http://www.w3.org/2000/svg" x="0" y="0" width="512" height="512" style="width:128px;height:128px;opacity:1" xml:space="preserve"><style>.st0{fill:#4b4b4b}</style><path class="st0" d="M510.792 328.922s-10.734-76.094-71.219-116.094l-24.14-16.047a41.465 41.465 0 0 1-19.109-19.438l-5.813-12.266a12.462 12.462 0 0 0-11.25-7.125H52.683l-26.688-20.359a4.225 4.225 0 0 0-2.531-.859h-12a4.154 4.154 0 0 0-4.156 4.156v17.125C3.199 158.5-.004 162-.004 166.25v43.406c0 4.578 3.719 8.297 8.297 8.297h255.031v57.657a52.78 52.78 0 0 0 15.344 37.234c9.453 9.547 35.969 15.516 50.484 15.625h.375a52.73 52.73 0 0 0 37.234-15.359 52.767 52.767 0 0 0 15.625-37.141v-2.657c5.766 6.625 23.516 30.656 27.406 80.047.563 7 .344 9.891.344 9.891.234 6.703 5.734 12.016 12.438 12.016h51.531c11.625 0 23.047-3.125 30.469-12.078 8.78-10.61 8.171-19.625 6.218-34.266zm-157.437-29.297c-6.141 6.078-14.516 9.813-23.828 9.813h-.25c-9.328-.063-31-3.859-37.109-10-6.094-6.156-9.625-11.25-9.641-20.578 0 0-.359-7.484 6.219-7.484h49.078l-.641.688c-6.438 6.797-9.156 8.516-9.156 8.516a2.455 2.455 0 0 0-.781 2.047 2.442 2.442 0 0 0 1.141 1.875l6.469 4.094a2.472 2.472 0 0 0 2.656 0s7.953-4.641 11.781-7.438a105.18 105.18 0 0 0 11.141-9.391c3.172 1.109 2.922 4.078 2.922 4.078-.064 9.327-3.86 17.671-10.001 23.78zm15.484-50.203h-10.234v-14.156h-67.234c-3.094 0-5.609-2.516-5.609-5.609s2.516-5.609 5.609-5.609h67.234v-21.453h-67.234a5.614 5.614 0 0 1-5.609-5.609 5.605 5.605 0 0 1 5.609-5.609h67.234v-12.203h10.234v70.248zm88.531 97.297c-6.063 0-10.969-4.906-10.969-10.969s4.906-10.969 10.969-10.969 10.984 4.906 10.984 10.969-4.921 10.969-10.984 10.969z" style="fill:#d40000"/><path class="st0" d="M407.621 183.688c4.875-5.422 9.969-9.984 14.422-13.547 7.312-5.844 10.25-7.156 10.25-7.156.625-.453 1.031-1.156 1.063-1.922a2.492 2.492 0 0 0-.891-2.016l-5.844-4.953a2.437 2.437 0 0 0-2.625-.359s-8.5 3.484-12.688 5.734a103.22 103.22 0 0 0-13.047 8.297l3.344 7.078c1.547 3.25 3.594 6.219 6.016 8.844z" style="fill:#d40000"/></svg>