<svg version="1.1" id="_x32_" xmlns="http://www.w3.org/2000/svg" x="0" y="0" viewBox="0 0 512 512" style="width:256px;height:256px;opacity:1" xml:space="preserve"><style>.st0{fill:#4b4b4b}</style><path class="st0" d="M197.62 238.574v-45.828c-14.75 5.27-31.722 11.334-49.026 17.522l49.026 28.306zm-74.941 36.51c.007 9.827 1.453 19.409 4.319 28.605l49.549-28.605-49.549-28.605c-2.866 9.196-4.319 18.785-4.319 28.605zm138.175 0 13.474 7.776c1.99-.713 3.627-1.297 4.856-1.732 5.046-1.807 17.963-7.022 35.192-14.112a94.873 94.873 0 0 0-3.98-20.536l-49.542 28.604zm-4.788-88.49a95.027 95.027 0 0 0-16.292-5.203v57.183l49.46-28.551c-9.297-10.105-20.604-18.119-33.168-23.429z" style="fill:#d40000"/><path class="st0" d="M297.275 158.573c-22.404-15.145-49.535-24.014-78.574-24.007-19.355-.007-37.881 3.932-54.704 11.049-25.236 10.676-46.656 28.469-61.8 50.887-15.158 22.404-24.021 49.535-24.014 78.581 0 19.348 3.932 37.875 11.056 54.696 10.676 25.236 28.469 46.656 50.88 61.8 22.411 15.158 49.536 24.02 78.582 24.014 19.348 0 37.875-3.932 54.703-11.049 25.236-10.683 46.656-28.476 61.8-50.887 15.151-22.412 24.014-49.535 24.007-78.574.007-19.355-3.932-37.882-11.05-54.703-10.675-25.243-28.468-46.662-50.886-61.807zm-66.867 11.783c10.302 1.134 20.129 3.728 29.304 7.613 17.521 7.403 32.611 19.498 43.783 34.636l-67.444 38.941a29.375 29.375 0 0 0-5.644-3.287v-77.903zm-70.621 17.324c13.793-9.304 29.826-15.416 47.199-17.338v77.916a29.35 29.35 0 0 0-5.637 3.287l-67.464-38.955c7.157-9.69 15.905-18.159 25.902-24.91zm-46.473 87.404c0-14.601 2.954-28.421 8.279-41.02.17-.408.38-.801.556-1.208l67.464 38.954a30.614 30.614 0 0 0-.19 3.274c0 1.1.074 2.186.19 3.259l-67.491 38.982c-5.664-12.917-8.801-27.178-8.808-42.241zm93.672 104.721c-10.296-1.141-20.13-3.735-29.297-7.614-17.522-7.409-32.612-19.498-43.79-34.635l67.45-38.934a28.932 28.932 0 0 0 5.637 3.28v77.903zm11.714-93.013c-6.472 0-11.715-5.243-11.715-11.708 0-6.472 5.243-11.715 11.715-11.715 6.465 0 11.708 5.243 11.708 11.715 0 6.465-5.242 11.708-11.708 11.708zm58.908 75.681c-13.793 9.31-29.82 15.429-47.199 17.344v-77.916c2.017-.876 3.892-1.99 5.644-3.28l67.457 38.941c-7.159 9.699-15.899 18.161-25.902 24.911zm38.2-46.378c-.17.408-.38.795-.557 1.202L247.78 278.35c.116-1.08.197-2.166.197-3.266 0-1.114-.081-2.2-.197-3.274l67.498-38.968c5.664 12.916 8.802 27.171 8.808 42.241-.006 14.602-2.954 28.415-8.278 41.012zM61.959 275.084c-.007-15.416 2.296-30.316 6.458-44.428l-31.321 11.192c-4.265 1.528-6.492 6.166-5.093 10.431-19.858 9.874-40.055 37.026-28.741 68.693 11.315 31.654 44.158 39.872 65.767 34.914 1.63 4.197 6.289 6.357 10.554 4.842l6.438-2.302c-4.462-7.09-8.428-14.526-11.728-22.33-7.947-18.764-12.334-39.43-12.334-61.012zM477.772 96.406l-14.506 5.182c-10.16 3.634-6.479 9.854-24.394 16.251-1.827.652-5.494 1.834-10.581 3.423-2.139-2.825-5.901-4.088-9.412-2.839a8.312 8.312 0 0 0-5.501 7.43c-31.546 9.602-54.351 15.402-95.75 27.742 19.681 16.041 35.436 36.707 45.481 60.47a155.59 155.59 0 0 1 9.018 28.923c35.097-14.954 45.393-22.071 71.396-32.781 2.187 2.424 5.705 3.429 8.964 2.255 3.511-1.257 5.616-4.625 5.481-8.157 4.937-1.996 8.523-3.409 10.356-4.06 17.908-6.411 19.008.733 29.169-2.894L512 192.169l-34.228-95.763z" style="fill:#d40000"/></svg>